# xmcd
#
# Track frame offsets: 
#        150
#        20901
#        48989
#        72420
#        100071
#        120850
#        146330
#        175755
#        205170
#        227742
#
# Disc length: 3607 seconds
#
# Revision: 0
# Processed by: cddbd v1.5.2PL0 Copyright (c) Steve Scherf et al.
# Submitted via: ExactAudioCopy v0.95b4
#
DISCID=820e150a
DTITLE=The Hearers - Don't Make the Captain Cry
DYEAR=2005
DGENRE=Country
TTITLE0=The Great Magnetic Pull
TTITLE1=Bathroom Wall
TTITLE2=Unhinged and in Flight
TTITLE3=Eyes Exploding Stars
TTITLE4=Dry
TTITLE5=Embalmers Version of Paradise
TTITLE6=Rue St. Philip
TTITLE7=Fading Fast
TTITLE8=Two Lovers
TTITLE9=The One Who Paralyzes You/Bones and Blood
EXTD=
EXTT0=
EXTT1=
EXTT2=
EXTT3=
EXTT4=
EXTT5=
EXTT6=
EXTT7=
EXTT8=
EXTT9=
PLAYORDER=
